<?xml version="1.0" encoding="UTF-8" standalone="no"?>
<svg width="191px" height="186px" viewBox="0 0 191 186" version="1.1" xmlns="http://www.w3.org/2000/svg" xmlns:xlink="http://www.w3.org/1999/xlink">
    <!-- Generator: sketchtool 41.2 (35397) - http://www.bohemiancoding.com/sketch -->
    <title>F6EBAD8C-6F6D-4FBF-B9B8-79F675E4D24E</title>
    <desc>Created with sketchtool.</desc>
    <defs>
        <rect id="path-1" x="0" y="0" width="191" height="186"></rect>
        <mask id="mask-2" maskContentUnits="userSpaceOnUse" maskUnits="objectBoundingBox" x="0" y="0" width="191" height="186" fill="white">
            <use xlink:href="#path-1"></use>
        </mask>
        <rect id="path-3" x="0" y="104.666667" width="86" height="52.3333333" rx="26.1666667"></rect>
        <mask id="mask-4" maskContentUnits="userSpaceOnUse" maskUnits="objectBoundingBox" x="0" y="0" width="86" height="52.3333333" fill="white">
            <use xlink:href="#path-3"></use>
        </mask>
        <path d="M30.4583333,92.0344828 L53.75,92.0344828 L53.75,106.471264 C53.75,106.471264 51.3427401,114.950548 42.1041667,114.950548 C32.8655932,114.950548 30.4583333,106.471264 30.4583333,106.471264 L30.4583333,92.0344828 Z" id="path-5"></path>
        <mask id="mask-6" maskContentUnits="userSpaceOnUse" maskUnits="objectBoundingBox" x="0" y="0" width="23.2916667" height="22.9160654" fill="white">
            <use xlink:href="#path-5"></use>
        </mask>
        <path d="M1.79166667,32.4827586 C1.79166667,32.4827586 4.50289213,15.2522373 17.7362062,8.88145703 C26.1225889,4.84408581 33.9910807,8.88145703 33.9910807,8.88145703 C33.9910807,8.88145703 42.6242953,0.249503427 51.9989335,0.249494871 C80.6373973,0.249468732 82.4166667,27.0689655 82.4166667,27.0689655 L82.4166667,63.1609195 L1.79166667,63.1609195 L1.79166667,32.4827586 Z" id="path-7"></path>
        <mask id="mask-8" maskContentUnits="userSpaceOnUse" maskUnits="objectBoundingBox" x="0" y="0" width="80.625" height="62.9114247" fill="white">
            <use xlink:href="#path-7"></use>
        </mask>
        <ellipse id="path-9" cx="11.6458333" cy="64.0632184" rx="11.6458333" ry="11.7298851"></ellipse>
        <mask id="mask-10" maskContentUnits="userSpaceOnUse" maskUnits="objectBoundingBox" x="0" y="0" width="23.2916667" height="23.4597701" fill="white">
            <use xlink:href="#path-9"></use>
        </mask>
        <ellipse id="path-11" cx="74.3541667" cy="64.0632184" rx="11.6458333" ry="11.7298851"></ellipse>
        <mask id="mask-12" maskContentUnits="userSpaceOnUse" maskUnits="objectBoundingBox" x="0" y="0" width="23.2916667" height="23.4597701" fill="white">
            <use xlink:href="#path-11"></use>
        </mask>
        <path d="M10.75,28.8735632 C10.75,28.8735632 20.8132152,33.2552912 42.1041667,33.2552912 C63.3951182,33.2552912 73.4583333,28.8735632 73.4583333,28.8735632 L73.4583333,75.7931034 C73.4583333,75.7931034 70.3834718,99.9225003 43.4647641,99.9225003 C16.5460564,99.9225003 10.75,75.7931034 10.75,75.7931034 L10.75,28.8735632 Z" id="path-13"></path>
        <mask id="mask-14" maskContentUnits="userSpaceOnUse" maskUnits="objectBoundingBox" x="0" y="0" width="62.7083333" height="71.0489371" fill="white">
            <use xlink:href="#path-13"></use>
        </mask>
    </defs>
    <g id="flow" stroke="none" stroke-width="1" fill="none" fill-rule="evenodd">
        <g id="02.empty-state@2x" transform="translate(-1345.000000, -641.000000)">
            <g id="frame" transform="translate(1345.000000, 641.000000)">
                <use id="Rectangle-5" stroke="#AAAAAA" mask="url(#mask-2)" stroke-width="10.8" fill="#FFFFFF" xlink:href="#path-1"></use>
                <rect id="Rectangle-6" fill="#CCCCCC" x="13" y="13" width="163" height="136"></rect>
                <g id="Group" transform="translate(53.000000, 20.000000)">
                    <use id="Rectangle-3" stroke="#AAAAAA" mask="url(#mask-4)" stroke-width="10.8" fill="#E0E0E0" xlink:href="#path-3"></use>
                    <use id="Rectangle-4" stroke="#AAAAAA" mask="url(#mask-6)" stroke-width="10.8" fill="#FFFFFF" xlink:href="#path-5"></use>
                    <use id="Rectangle-2" stroke="#AAAAAA" mask="url(#mask-8)" stroke-width="10.8" fill="#E0E0E0" xlink:href="#path-7"></use>
                    <use id="Oval-1" stroke="#AAAAAA" mask="url(#mask-10)" stroke-width="10.8" fill="#FFFFFF" xlink:href="#path-9"></use>
                    <use id="Oval-1-Copy" stroke="#AAAAAA" mask="url(#mask-12)" stroke-width="10.8" fill="#FFFFFF" xlink:href="#path-11"></use>
                    <use id="Rectangle-1" stroke="#AAAAAA" mask="url(#mask-14)" stroke-width="10.8" fill="#FFFFFF" xlink:href="#path-13"></use>
                    <ellipse id="Oval-5" fill="#777777" cx="57.3333333" cy="57.7471264" rx="3.58333333" ry="3.6091954"></ellipse>
                    <ellipse id="Oval-5-Copy" fill="#777777" cx="28.6666667" cy="57.7471264" rx="3.58333333" ry="3.6091954"></ellipse>
                </g>
                <rect id="Rectangle-11" fill="#FFFFFF" x="13" y="147" width="164" height="33"></rect>
            </g>
        </g>
    </g>
</svg>